<svg xmlns="http://www.w3.org/2000/svg" version="1.1" xmlns:xlink="http://www.w3.org/1999/xlink" xmlns:svgjs="http://svgjs.dev/svgjs" width="1445" height="565" preserveAspectRatio="none" viewBox="0 0 1445 565"><g mask="url(&quot;#SvgjsMask1405&quot;)" fill="none"><g mask="url(&quot;#SvgjsMask1406&quot;)"><path d="M1069.5 356.5L1038.5 325.5L1007.5 325.5L976.5 325.5M1224.5 325.5L1193.5 294.5L1162.5 263.5M1317.5 294.5L1286.5 294.5L1255.5 294.5M1472.5 294.5L1441.5 294.5L1410.5 294.5L1379.5 294.5L1348.5 294.5L1317.5 294.5L1286.5 325.5L1255.5 325.5L1224.5 325.5L1193.5 325.5L1162.5 356.5L1131.5 356.5L1100.5 356.5L1069.5 356.5L1038.5 356.5" stroke="rgba(130, 58, 158, 1)" stroke-width="5.17"></path><path d="M1030.75 356.5 a7.75 7.75 0 1 0 15.5 0 a7.75 7.75 0 1 0 -15.5 0zM968.75 325.5 a7.75 7.75 0 1 0 15.5 0 a7.75 7.75 0 1 0 -15.5 0zM1154.75 263.5 a7.75 7.75 0 1 0 15.5 0 a7.75 7.75 0 1 0 -15.5 0zM1247.75 294.5 a7.75 7.75 0 1 0 15.5 0 a7.75 7.75 0 1 0 -15.5 0z" fill="rgba(130, 58, 158, 1)"></path><path d="M1317.5 232.5L1286.5 263.5M883.5 263.5L852.5 294.5L821.5 325.5L790.5 325.5L759.5 325.5M1038.5 232.5L1007.5 232.5L976.5 232.5M759.5 263.5L728.5 263.5L697.5 263.5L666.5 263.5M1100.5 232.5L1069.5 263.5L1038.5 263.5L1007.5 294.5M1348.5 263.5L1317.5 263.5M1472.5 263.5L1441.5 263.5L1410.5 263.5L1379.5 263.5L1348.5 263.5L1317.5 232.5L1286.5 232.5L1255.5 232.5L1224.5 232.5L1193.5 232.5L1162.5 232.5L1131.5 232.5L1100.5 232.5L1069.5 232.5L1038.5 232.5L1007.5 263.5L976.5 263.5L945.5 263.5L914.5 263.5L883.5 263.5L852.5 263.5L821.5 263.5L790.5 263.5L759.5 263.5L728.5 294.5L697.5 294.5" stroke="rgba(130, 58, 158, 1)" stroke-width="5.17"></path><path d="M689.75 294.5 a7.75 7.75 0 1 0 15.5 0 a7.75 7.75 0 1 0 -15.5 0zM1278.75 263.5 a7.75 7.75 0 1 0 15.5 0 a7.75 7.75 0 1 0 -15.5 0zM751.75 325.5 a7.75 7.75 0 1 0 15.5 0 a7.75 7.75 0 1 0 -15.5 0zM968.75 232.5 a7.75 7.75 0 1 0 15.5 0 a7.75 7.75 0 1 0 -15.5 0zM658.75 263.5 a7.75 7.75 0 1 0 15.5 0 a7.75 7.75 0 1 0 -15.5 0zM999.75 294.5 a7.75 7.75 0 1 0 15.5 0 a7.75 7.75 0 1 0 -15.5 0zM1309.75 263.5 a7.75 7.75 0 1 0 15.5 0 a7.75 7.75 0 1 0 -15.5 0z" fill="rgba(130, 58, 158, 1)"></path><path d="M1131.5 387.5L1100.5 418.5L1069.5 418.5L1038.5 418.5M1162.5 387.5L1131.5 418.5L1100.5 449.5M1348.5 325.5L1317.5 356.5L1286.5 387.5M1255.5 356.5L1224.5 387.5M1472.5 325.5L1441.5 325.5L1410.5 325.5L1379.5 325.5L1348.5 325.5L1317.5 325.5L1286.5 356.5L1255.5 356.5L1224.5 356.5L1193.5 356.5L1162.5 387.5L1131.5 387.5L1100.5 387.5L1069.5 387.5L1038.5 387.5L1007.5 387.5" stroke="rgba(130, 58, 158, 1)" stroke-width="5.17"></path><path d="M999.75 387.5 a7.75 7.75 0 1 0 15.5 0 a7.75 7.75 0 1 0 -15.5 0zM1030.75 418.5 a7.75 7.75 0 1 0 15.5 0 a7.75 7.75 0 1 0 -15.5 0zM1092.75 449.5 a7.75 7.75 0 1 0 15.5 0 a7.75 7.75 0 1 0 -15.5 0zM1278.75 387.5 a7.75 7.75 0 1 0 15.5 0 a7.75 7.75 0 1 0 -15.5 0zM1216.75 387.5 a7.75 7.75 0 1 0 15.5 0 a7.75 7.75 0 1 0 -15.5 0z" fill="rgba(130, 58, 158, 1)"></path><path d="M1472.5 232.5L1441.5 232.5L1410.5 232.5L1379.5 232.5L1348.5 232.5L1317.5 201.5L1286.5 201.5" stroke="rgba(130, 58, 158, 1)" stroke-width="5.17"></path><path d="M1278.75 201.5 a7.75 7.75 0 1 0 15.5 0 a7.75 7.75 0 1 0 -15.5 0z" fill="rgba(130, 58, 158, 1)"></path><path d="M1472.5 356.5L1441.5 356.5L1410.5 356.5L1379.5 356.5" stroke="rgba(130, 58, 158, 1)" stroke-width="5.17"></path><path d="M1371.75 356.5 a7.75 7.75 0 1 0 15.5 0 a7.75 7.75 0 1 0 -15.5 0z" fill="rgba(130, 58, 158, 1)"></path><path d="M1069.5 201.5L1038.5 170.5L1007.5 139.5L976.5 139.5M1100.5 201.5L1069.5 170.5L1038.5 139.5L1007.5 108.5M1131.5 201.5L1100.5 170.5M976.5 201.5L945.5 201.5L914.5 201.5M1472.5 201.5L1441.5 201.5L1410.5 201.5L1379.5 201.5L1348.5 201.5L1317.5 170.5L1286.5 170.5L1255.5 201.5L1224.5 201.5L1193.5 201.5L1162.5 201.5L1131.5 201.5L1100.5 201.5L1069.5 201.5L1038.5 201.5L1007.5 201.5L976.5 201.5L945.5 232.5L914.5 232.5" stroke="rgba(130, 58, 158, 1)" stroke-width="5.17"></path><path d="M906.75 232.5 a7.75 7.75 0 1 0 15.5 0 a7.75 7.75 0 1 0 -15.5 0zM968.75 139.5 a7.75 7.75 0 1 0 15.5 0 a7.75 7.75 0 1 0 -15.5 0zM999.75 108.5 a7.75 7.75 0 1 0 15.5 0 a7.75 7.75 0 1 0 -15.5 0zM1092.75 170.5 a7.75 7.75 0 1 0 15.5 0 a7.75 7.75 0 1 0 -15.5 0zM906.75 201.5 a7.75 7.75 0 1 0 15.5 0 a7.75 7.75 0 1 0 -15.5 0z" fill="rgba(130, 58, 158, 1)"></path><path d="M1410.5 418.5L1379.5 387.5M1317.5 418.5L1286.5 449.5M1255.5 418.5L1224.5 449.5L1193.5 449.5M1472.5 387.5L1441.5 387.5L1410.5 418.5L1379.5 418.5L1348.5 418.5L1317.5 418.5L1286.5 418.5L1255.5 418.5L1224.5 418.5L1193.5 418.5" stroke="rgba(130, 58, 158, 1)" stroke-width="5.17"></path><path d="M1185.75 418.5 a7.75 7.75 0 1 0 15.5 0 a7.75 7.75 0 1 0 -15.5 0zM1371.75 387.5 a7.75 7.75 0 1 0 15.5 0 a7.75 7.75 0 1 0 -15.5 0zM1278.75 449.5 a7.75 7.75 0 1 0 15.5 0 a7.75 7.75 0 1 0 -15.5 0zM1185.75 449.5 a7.75 7.75 0 1 0 15.5 0 a7.75 7.75 0 1 0 -15.5 0z" fill="rgba(130, 58, 158, 1)"></path><path d="M1441.5 170.5L1410.5 139.5M1379.5 170.5L1348.5 139.5L1317.5 108.5L1286.5 108.5M1224.5 170.5L1193.5 139.5M1472.5 170.5L1441.5 170.5L1410.5 170.5L1379.5 170.5L1348.5 170.5L1317.5 139.5L1286.5 139.5L1255.5 170.5L1224.5 170.5L1193.5 170.5L1162.5 170.5" stroke="rgba(130, 58, 158, 1)" stroke-width="5.17"></path><path d="M1154.75 170.5 a7.75 7.75 0 1 0 15.5 0 a7.75 7.75 0 1 0 -15.5 0zM1402.75 139.5 a7.75 7.75 0 1 0 15.5 0 a7.75 7.75 0 1 0 -15.5 0zM1278.75 108.5 a7.75 7.75 0 1 0 15.5 0 a7.75 7.75 0 1 0 -15.5 0zM1185.75 139.5 a7.75 7.75 0 1 0 15.5 0 a7.75 7.75 0 1 0 -15.5 0z" fill="rgba(130, 58, 158, 1)"></path></g></g><defs><mask id="SvgjsMask1405"><rect width="1445" height="565" fill="#ffffff"></rect></mask><mask id="SvgjsMask1406"><rect width="1445" height="565" fill="white"></rect><path d="M1034.62 356.5 a3.88 3.88 0 1 0 7.76 0 a3.88 3.88 0 1 0 -7.76 0zM972.62 325.5 a3.88 3.88 0 1 0 7.76 0 a3.88 3.88 0 1 0 -7.76 0zM1158.62 263.5 a3.88 3.88 0 1 0 7.76 0 a3.88 3.88 0 1 0 -7.76 0zM1251.62 294.5 a3.88 3.88 0 1 0 7.76 0 a3.88 3.88 0 1 0 -7.76 0z" fill="black"></path><path d="M693.62 294.5 a3.88 3.88 0 1 0 7.76 0 a3.88 3.88 0 1 0 -7.76 0zM1282.62 263.5 a3.88 3.88 0 1 0 7.76 0 a3.88 3.88 0 1 0 -7.76 0zM755.62 325.5 a3.88 3.88 0 1 0 7.76 0 a3.88 3.88 0 1 0 -7.76 0zM972.62 232.5 a3.88 3.88 0 1 0 7.76 0 a3.88 3.88 0 1 0 -7.76 0zM662.62 263.5 a3.88 3.88 0 1 0 7.76 0 a3.88 3.88 0 1 0 -7.76 0zM1003.62 294.5 a3.88 3.88 0 1 0 7.76 0 a3.88 3.88 0 1 0 -7.76 0zM1313.62 263.5 a3.88 3.88 0 1 0 7.76 0 a3.88 3.88 0 1 0 -7.76 0z" fill="black"></path><path d="M1003.62 387.5 a3.88 3.88 0 1 0 7.76 0 a3.88 3.88 0 1 0 -7.76 0zM1034.62 418.5 a3.88 3.88 0 1 0 7.76 0 a3.88 3.88 0 1 0 -7.76 0zM1096.62 449.5 a3.88 3.88 0 1 0 7.76 0 a3.88 3.88 0 1 0 -7.76 0zM1282.62 387.5 a3.88 3.88 0 1 0 7.76 0 a3.88 3.88 0 1 0 -7.76 0zM1220.62 387.5 a3.88 3.88 0 1 0 7.76 0 a3.88 3.88 0 1 0 -7.76 0z" fill="black"></path><path d="M1282.62 201.5 a3.88 3.88 0 1 0 7.76 0 a3.88 3.88 0 1 0 -7.76 0z" fill="black"></path><path d="M1375.62 356.5 a3.88 3.88 0 1 0 7.76 0 a3.88 3.88 0 1 0 -7.76 0z" fill="black"></path><path d="M910.62 232.5 a3.88 3.88 0 1 0 7.76 0 a3.88 3.88 0 1 0 -7.76 0zM972.62 139.5 a3.88 3.88 0 1 0 7.76 0 a3.88 3.88 0 1 0 -7.76 0zM1003.62 108.5 a3.88 3.88 0 1 0 7.76 0 a3.88 3.88 0 1 0 -7.76 0zM1096.62 170.5 a3.88 3.88 0 1 0 7.76 0 a3.88 3.88 0 1 0 -7.76 0zM910.62 201.5 a3.88 3.88 0 1 0 7.76 0 a3.88 3.88 0 1 0 -7.76 0z" fill="black"></path><path d="M1189.62 418.5 a3.88 3.88 0 1 0 7.76 0 a3.88 3.88 0 1 0 -7.76 0zM1375.62 387.5 a3.88 3.88 0 1 0 7.76 0 a3.88 3.88 0 1 0 -7.76 0zM1282.62 449.5 a3.88 3.88 0 1 0 7.76 0 a3.88 3.88 0 1 0 -7.76 0zM1189.62 449.5 a3.88 3.88 0 1 0 7.76 0 a3.88 3.88 0 1 0 -7.76 0z" fill="black"></path><path d="M1158.62 170.5 a3.88 3.88 0 1 0 7.76 0 a3.88 3.88 0 1 0 -7.76 0zM1406.62 139.5 a3.88 3.88 0 1 0 7.76 0 a3.88 3.88 0 1 0 -7.76 0zM1282.62 108.5 a3.88 3.88 0 1 0 7.76 0 a3.88 3.88 0 1 0 -7.76 0zM1189.62 139.5 a3.88 3.88 0 1 0 7.76 0 a3.88 3.88 0 1 0 -7.76 0z" fill="black"></path></mask></defs></svg>