<svg xmlns="http://www.w3.org/2000/svg" version="1.1" xmlns:xlink="http://www.w3.org/1999/xlink" xmlns:svgjs="http://svgjs.dev/svgjs" width="1440" height="560" preserveAspectRatio="none" viewBox="0 0 1440 560"><g mask="url(&quot;#SvgjsMask2094&quot;)" fill="none"><rect width="1440" height="560" x="0" y="0" fill="url(&quot;#SvgjsLinearGradient2095&quot;)"></rect><g mask="url(&quot;#SvgjsMask2096&quot;)"><path d="M1215 285L1185 315L1155 315M1245 285L1215 315M1305 285L1275 315M1095 285L1065 315L1035 315L1005 315M1485 285L1455 285L1425 285L1395 285L1365 285L1335 285L1305 285L1275 285L1245 285L1215 285L1185 285L1155 285L1125 285L1095 285L1065 285L1035 285L1005 285L975 255L945 255" stroke="rgba(102, 72, 175, 1)" stroke-width="5"></path><path d="M937.5 255 a7.5 7.5 0 1 0 15 0 a7.5 7.5 0 1 0 -15 0zM1147.5 315 a7.5 7.5 0 1 0 15 0 a7.5 7.5 0 1 0 -15 0zM1207.5 315 a7.5 7.5 0 1 0 15 0 a7.5 7.5 0 1 0 -15 0zM1267.5 315 a7.5 7.5 0 1 0 15 0 a7.5 7.5 0 1 0 -15 0zM997.5 315 a7.5 7.5 0 1 0 15 0 a7.5 7.5 0 1 0 -15 0z" fill="rgba(102, 72, 175, 1)"></path><path d="M1185 255L1155 225L1125 225L1095 225M1215 255L1185 225M1065 255L1035 225L1005 225L975 225L945 225M1485 255L1455 255L1425 255L1395 255L1365 255L1335 255L1305 255L1275 255L1245 255L1215 255L1185 255L1155 255L1125 255L1095 255L1065 255L1035 255" stroke="rgba(102, 72, 175, 1)" stroke-width="5"></path><path d="M1027.5 255 a7.5 7.5 0 1 0 15 0 a7.5 7.5 0 1 0 -15 0zM1087.5 225 a7.5 7.5 0 1 0 15 0 a7.5 7.5 0 1 0 -15 0zM1177.5 225 a7.5 7.5 0 1 0 15 0 a7.5 7.5 0 1 0 -15 0zM937.5 225 a7.5 7.5 0 1 0 15 0 a7.5 7.5 0 1 0 -15 0z" fill="rgba(102, 72, 175, 1)"></path><path d="M1395 315L1365 345L1335 345M1185 345L1155 375L1125 375L1095 375L1065 405M1275 345L1245 375M1065 345L1035 375L1005 375L975 375L945 375M1485 315L1455 315L1425 315L1395 315L1365 315L1335 315L1305 345L1275 345L1245 345L1215 345L1185 345L1155 345L1125 345L1095 345L1065 345L1035 345L1005 345L975 345" stroke="rgba(102, 72, 175, 1)" stroke-width="5"></path><path d="M967.5 345 a7.5 7.5 0 1 0 15 0 a7.5 7.5 0 1 0 -15 0zM1327.5 345 a7.5 7.5 0 1 0 15 0 a7.5 7.5 0 1 0 -15 0zM1057.5 405 a7.5 7.5 0 1 0 15 0 a7.5 7.5 0 1 0 -15 0zM1237.5 375 a7.5 7.5 0 1 0 15 0 a7.5 7.5 0 1 0 -15 0zM937.5 375 a7.5 7.5 0 1 0 15 0 a7.5 7.5 0 1 0 -15 0z" fill="rgba(102, 72, 175, 1)"></path><path d="M1485 225L1455 225L1425 225L1395 225L1365 225L1335 225L1305 225L1275 225L1245 225" stroke="rgba(102, 72, 175, 1)" stroke-width="5"></path><path d="M1237.5 225 a7.5 7.5 0 1 0 15 0 a7.5 7.5 0 1 0 -15 0z" fill="rgba(102, 72, 175, 1)"></path><path d="M1425 345L1395 345M1485 345L1455 345L1425 345L1395 375L1365 375L1335 375" stroke="rgba(102, 72, 175, 1)" stroke-width="5"></path><path d="M1327.5 375 a7.5 7.5 0 1 0 15 0 a7.5 7.5 0 1 0 -15 0zM1387.5 345 a7.5 7.5 0 1 0 15 0 a7.5 7.5 0 1 0 -15 0z" fill="rgba(102, 72, 175, 1)"></path><path d="M1035 165L1005 195M1155 195L1125 165L1095 135L1065 135M1185 195L1155 165L1125 135L1095 105M1065 165L1035 195M975 135L945 105L915 105L885 105M1485 195L1455 195L1425 195L1395 195L1365 195L1335 195L1305 195L1275 195L1245 195L1215 195L1185 195L1155 195L1125 195L1095 195L1065 165L1035 165L1005 165L975 135L945 135L915 135L885 135L855 135" stroke="rgba(102, 72, 175, 1)" stroke-width="5"></path><path d="M847.5 135 a7.5 7.5 0 1 0 15 0 a7.5 7.5 0 1 0 -15 0zM997.5 195 a7.5 7.5 0 1 0 15 0 a7.5 7.5 0 1 0 -15 0zM1057.5 135 a7.5 7.5 0 1 0 15 0 a7.5 7.5 0 1 0 -15 0zM1087.5 105 a7.5 7.5 0 1 0 15 0 a7.5 7.5 0 1 0 -15 0zM1027.5 195 a7.5 7.5 0 1 0 15 0 a7.5 7.5 0 1 0 -15 0zM877.5 105 a7.5 7.5 0 1 0 15 0 a7.5 7.5 0 1 0 -15 0z" fill="rgba(102, 72, 175, 1)"></path><path d="M1395 405L1365 435L1335 435L1305 435L1275 435M1455 375L1425 405L1395 435L1365 465L1335 465M1485 375L1455 375L1425 375L1395 405L1365 405" stroke="rgba(102, 72, 175, 1)" stroke-width="5"></path><path d="M1357.5 405 a7.5 7.5 0 1 0 15 0 a7.5 7.5 0 1 0 -15 0zM1267.5 435 a7.5 7.5 0 1 0 15 0 a7.5 7.5 0 1 0 -15 0zM1327.5 465 a7.5 7.5 0 1 0 15 0 a7.5 7.5 0 1 0 -15 0z" fill="rgba(102, 72, 175, 1)"></path><path d="M1335 165L1305 135L1275 135L1245 135L1215 135M1395 165L1365 135L1335 135L1305 105L1275 105M1455 165L1425 135L1395 135L1365 105M1485 165L1455 165L1425 165L1395 165L1365 165L1335 165L1305 165L1275 165" stroke="rgba(102, 72, 175, 1)" stroke-width="5"></path><path d="M1267.5 165 a7.5 7.5 0 1 0 15 0 a7.5 7.5 0 1 0 -15 0zM1207.5 135 a7.5 7.5 0 1 0 15 0 a7.5 7.5 0 1 0 -15 0zM1267.5 105 a7.5 7.5 0 1 0 15 0 a7.5 7.5 0 1 0 -15 0zM1357.5 105 a7.5 7.5 0 1 0 15 0 a7.5 7.5 0 1 0 -15 0z" fill="rgba(102, 72, 175, 1)"></path></g></g><defs><mask id="SvgjsMask2094"><rect width="1440" height="560" fill="#ffffff"></rect></mask><linearGradient x1="15.28%" y1="-39.29%" x2="84.72%" y2="139.29%" gradientUnits="userSpaceOnUse" id="SvgjsLinearGradient2095"><stop stop-color="rgba(255, 252, 252, 1)" offset="0.78"></stop><stop stop-color="rgba(255, 255, 255, 1)" offset="1"></stop></linearGradient><mask id="SvgjsMask2096"><rect width="1440" height="560" fill="white"></rect><path d="M941.25 255 a3.75 3.75 0 1 0 7.5 0 a3.75 3.75 0 1 0 -7.5 0zM1151.25 315 a3.75 3.75 0 1 0 7.5 0 a3.75 3.75 0 1 0 -7.5 0zM1211.25 315 a3.75 3.75 0 1 0 7.5 0 a3.75 3.75 0 1 0 -7.5 0zM1271.25 315 a3.75 3.75 0 1 0 7.5 0 a3.75 3.75 0 1 0 -7.5 0zM1001.25 315 a3.75 3.75 0 1 0 7.5 0 a3.75 3.75 0 1 0 -7.5 0z" fill="black"></path><path d="M1031.25 255 a3.75 3.75 0 1 0 7.5 0 a3.75 3.75 0 1 0 -7.5 0zM1091.25 225 a3.75 3.75 0 1 0 7.5 0 a3.75 3.75 0 1 0 -7.5 0zM1181.25 225 a3.75 3.75 0 1 0 7.5 0 a3.75 3.75 0 1 0 -7.5 0zM941.25 225 a3.75 3.75 0 1 0 7.5 0 a3.75 3.75 0 1 0 -7.5 0z" fill="black"></path><path d="M971.25 345 a3.75 3.75 0 1 0 7.5 0 a3.75 3.75 0 1 0 -7.5 0zM1331.25 345 a3.75 3.75 0 1 0 7.5 0 a3.75 3.75 0 1 0 -7.5 0zM1061.25 405 a3.75 3.75 0 1 0 7.5 0 a3.75 3.75 0 1 0 -7.5 0zM1241.25 375 a3.75 3.75 0 1 0 7.5 0 a3.75 3.75 0 1 0 -7.5 0zM941.25 375 a3.75 3.75 0 1 0 7.5 0 a3.75 3.75 0 1 0 -7.5 0z" fill="black"></path><path d="M1241.25 225 a3.75 3.75 0 1 0 7.5 0 a3.75 3.75 0 1 0 -7.5 0z" fill="black"></path><path d="M1331.25 375 a3.75 3.75 0 1 0 7.5 0 a3.75 3.75 0 1 0 -7.5 0zM1391.25 345 a3.75 3.75 0 1 0 7.5 0 a3.75 3.75 0 1 0 -7.5 0z" fill="black"></path><path d="M851.25 135 a3.75 3.75 0 1 0 7.5 0 a3.75 3.75 0 1 0 -7.5 0zM1001.25 195 a3.75 3.75 0 1 0 7.5 0 a3.75 3.75 0 1 0 -7.5 0zM1061.25 135 a3.75 3.75 0 1 0 7.5 0 a3.75 3.75 0 1 0 -7.5 0zM1091.25 105 a3.75 3.75 0 1 0 7.5 0 a3.75 3.75 0 1 0 -7.5 0zM1031.25 195 a3.75 3.75 0 1 0 7.5 0 a3.75 3.75 0 1 0 -7.5 0zM881.25 105 a3.75 3.75 0 1 0 7.5 0 a3.75 3.75 0 1 0 -7.5 0z" fill="black"></path><path d="M1361.25 405 a3.75 3.75 0 1 0 7.5 0 a3.75 3.75 0 1 0 -7.5 0zM1271.25 435 a3.75 3.75 0 1 0 7.5 0 a3.75 3.75 0 1 0 -7.5 0zM1331.25 465 a3.75 3.75 0 1 0 7.5 0 a3.75 3.75 0 1 0 -7.5 0z" fill="black"></path><path d="M1271.25 165 a3.75 3.75 0 1 0 7.5 0 a3.75 3.75 0 1 0 -7.5 0zM1211.25 135 a3.75 3.75 0 1 0 7.5 0 a3.75 3.75 0 1 0 -7.5 0zM1271.25 105 a3.75 3.75 0 1 0 7.5 0 a3.75 3.75 0 1 0 -7.5 0zM1361.25 105 a3.75 3.75 0 1 0 7.5 0 a3.75 3.75 0 1 0 -7.5 0z" fill="black"></path></mask></defs></svg>